<?xml version="1.0" encoding="UTF-8"?>
<svg version="1.1" viewBox="0 0 2048 2048" width="128" height="128" xmlns="http://www.w3.org/2000/svg">
<path transform="translate(0)" d="m0 0h2048v2048h-2048z" fill="#171616"/>
<path transform="translate(1171,415)" d="m0 0h21l13 4 12 7 9 9 8 14 3 12v18l-5 16-7 11-7 8-14 9-8 3-6 1h-18l-9-2-12-6-6-4v-2l-4-2-8-11-4-8-11 3-26 10-17 9-12 6-19 12-17 13-15 13-10 9 2 5 5 9 4 11 1 5v15l-5 16-9 14-7 7-15 9-11 3h-21l-6-2-1 5-7 22-6 26-4 23-2 24v22l2 26h11l11 3 12 7 10 10 5 6 5 11 3 14v13l-4 15-8 12-9 9-11 7-16 5h-20l-13-5-10-6v-2l-4-2-7-8-8-16-2-8v-18l4-13 5-9 7-9 7-6 9-5-2-25v-32l3-31 5-25 7-26 6-18 2-4v-5l-9-9-8-16-2-7v-18l4-14 8-13 8-8 13-8 11-4 5-1h16l9 2 7 3 4-1 8-7 12-12 14-11 13-10 30-18 23-11 25-9 12-3 2-7 2-10 4-9 7-11 7-7 10-6 8-4z" fill="#FBFCFC"/>
<path transform="translate(1087,1411)" d="m0 0 10 1 15 2 5 3 5 1 14 7 6 4 5 3 5 6 5 3 8 9 1 3 3 3 8 16 3 10 1 11 2 8v14l-2 15-5 15-6 10-7 11-8 7-7 7-13 8-13 6-9 3-10 2-11 1h-21l-7-3-14-5-16-9-16-15-10-14-8-17-5-21-1-8 1-15 6-24 8-14 7-10 5-6h2v-2l7-5 15-9 3-3 18-6z" fill="#D0EEC8"/>
<path transform="translate(1021,637)" d="m0 0h14l52 5 57 6 57 5 40 4 7 3 4 5-1 8-13 23-16 27-8 13-13 22-13 21-16 27-17 28-6 4-7-1-9-10-13-19-10-14-8-12-13-19-30-44-42-63-3-6 1-7 4-5z" fill="#FCFCFC"/>
<path transform="translate(430,1015)" d="m0 0h91l-2 2-11 4-7 9-3 9v229l2 18 4 17 9 24 8 15 7 9 7 8 12 9 13 6 7 2v2h-10l-26-8-23-11-10-8-7-6-7-8-10-13-9-17-7-21-2-7-2-30-1-212-3-8-7-8-13-5z" fill="#D9EFD6"/>
<path transform="translate(1087,1411)" d="m0 0 10 1 15 2 5 3 5 1 14 7 6 4 5 3 5 6 5 3 8 9 1 3 3 3 8 16 3 10 1 11 2 8v14l-2 15-5 15-4 7-3 1-1 2h-15l-8-8 2-5 2-11 4-8 10-2 3-4v-13l-6-9-6-4-3-1h-7l-8 4-4 5-2 5-1 7-2 1-1-5 3-10 4-6 6-4 7-2 7 1 8 5 8 9 3 9v13l-2 12-4 7h2l4-6 4-12v-15l-4-14-6-10-8-7-8-4-10-4h-10l-17 5-11 6-5 6-2 4-1 7-2 3h2v9l-4 8-8 8-12 5-10 3h-14l-10-3-8-5-2-5 5-7 20-13 6-5 4-6v-10l-5-8-6-4-10-2-1 3-9 3-15 8-9 7-8 13-1 3-1 14h-1l-1-8 1-15 6-24 8-14 7-10 5-6h2v-2l7-5 15-9 3-3 18-6z" fill="#8C07E6"/>
<path transform="translate(1049,661)" d="m0 0 15 1 52 5 90 9 15 1-2 5-12 20-10 17-9 15-16 28-8 13-14 24-4 5h-2l-32-48-21-31-13-19-20-30-9-13z" fill="#171616"/>
<path transform="translate(300,1015)" d="m0 0h4v2l-8 4-5 6-1 10 6 25 17 63 15 56 11 40v4h-43l-3-7-13-49-13-48-7-26-8-30-7-24-6-12-6-5v-2l-5-1-8-4v-1z" fill="#FDFDFD"/>
<path transform="translate(1764,1031)" d="m0 0 2 1-4 14 1 10 4 8 8 8 14 8 21 10 26 11 27 13 12 8 10 8 7 8 7 12 4 15v11l-4 13-6 10-9 10-10 9h-2l5-15-2-10-4-6-10-9-18-11-24-14-19-12-15-10-12-9-11-9-8-10-6-13-3-12v-14l4-14 7-11 5-6z" fill="#5FC138"/>
<path transform="translate(1532,1015)" d="m0 0 60 1v208l-3 1h-56l-1-2 8-4 6-7 3-6 1-8v-159l-3-9-6-8-9-6z" fill="#5FC138"/>
<path transform="translate(1314,1015)" d="m0 0 61 1v208l-4 1h-50l-6-1 2-2 8-4 5-6 3-8v-168l-5-10-9-8-5-2z" fill="#5FC138"/>
<path transform="translate(548,1015)" d="m0 0 48 1 5 5 13 18 10 13 14 19 16 21 9 13 14 19 16 21 10 14 6 8 1 3v54l-5-4-10-14-14-18-10-14-16-21-14-19-11-14-14-19-10-13-13-18-10-13-14-19-8-10-9-9-4-2z" fill="#A7DE93"/>
<path transform="translate(1424,1016)" d="m0 0 20 4 17 8 9 7 9 9 8 14 5 11 4 14 3 22v33l-3 19-4 15-8 16-6 9-7 8-11 8-10 5-20 6-6 1-2-2 6-3 7-7 8-15 4-13 4-24 2-25v-30l-2-27-3-19-5-17-6-12-9-10-4-3z" fill="#5FC138"/>
<path transform="translate(869,1015)" d="m0 0 48 1 9 13 15 20 14 19 13 18 27 36 28 38 6 9v54l-6-5-10-14-10-13-14-19-9-12-14-18-14-19-16-21-10-14-14-18-8-11-9-12-14-19-5-6-7-6z" fill="#A6DC92"/>
<path transform="translate(1198,1015)" d="m0 0h9l19 5 19 10 11 9 10 12 7 12 6 16 3 11 3 25-1 22-3 18-5 16-9 17-8 10-9 9-14 9-11 5-27 7-2-1 13-8 9-8 8-14 6-15 5-21 2-15 1-16v-22l-2-22-4-20-6-18-6-12-8-10-8-7-8-3z" fill="#8DD470"/>
<path transform="translate(1146,1015)" d="m0 0h10l-3 2-8 4-9 8-9 14-7 19-4 20-2 14-1 13v19l2 23 3 20 6 20 8 15 7 9 8 6 10 5v1l-9-1-16-4-15-6-11-7-10-9-7-8-8-13-6-15-4-15-2-16v-25l3-21 5-17 9-17 7-9 5-5 9-8 16-9 13-5z" fill="#8DD470"/>
<path transform="translate(1029,1472)" d="m0 0h9l7 6 1 2v6l-7 8-14 7-8 2-1 3v9l5 9 9 8 12 6 14 3h8l15-4 18-8 7-8 2-10 1-16 4-8 7-7 4-2h6l2 2-6 5-1 9 1 5-1 19-5 10-7 9-6 7-13 8-16 8-6 2v2h-3v2l-5 1-1 4-7-2-5-4-18-10-9-6-4-2 8 14 10 11 13 10 9 7 5 3v2h-8l-16-8-8-6-12-11-9-12-8-15-5-16-1-4v-20l5-10 5-7 11-8 8-4z" fill="#29D6E9"/>
<path transform="translate(173,1286)" d="m0 0h1l3 12 6 8 4 5 14 9 11 5 13 4 16 3 21 1 37-3 47-7 53-10 35-7 7-1-2 2-19 6-26 8-41 14-27 9-35 9-24 5-11 1h-19l-14-2-16-6-14-9-8-8-8-14-4-13-1-5v-13z" fill="#D8EDD5"/>
<path transform="translate(915,829)" d="m0 0h14l13 4 10 9 4 7 2 11-1 11-4 10-8 9-10 5-7 2h-13l-10-4-8-7-6-8-3-8v-14l4-11 9-10 11-5z" fill="#171617"/>
<path transform="translate(1172,437)" d="m0 0h16l10 3 9 7 6 9 3 9v11l-3 11-5 7-9 7-6 3-9 2-11-1-12-6-5-5-6-7-3-9-1-9 3-12 6-9 8-7z" fill="#171617"/>
<path transform="translate(953,569)" d="m0 0 12 1 8 3 6 4 5 4 5 9 3 11v10l-4 10-4 6-7 6-10 4-4 1h-16l-9-4-8-7-5-10-2-6v-10l3-10 6-10 8-7 8-4z" fill="#181618"/>
<path transform="translate(1040,1465)" d="m0 0 10 1 6 4 4 5 2 4v10l-7 9-10 7-15 10-3 6 2 4 12 6 5 1h14l18-6 6-4 7-8 2-5 1-9h-2l3-12 4-6 8-6 12-5 11-3h10l13 5 11 8 6 7 5 12 2 8v15l-5 14-4 5-3-1 5-10 1-9v-13l-3-9-9-10-9-4-8 1-6 3-3 1-2 4-3 7-1 10 2 1-4-1v-11l5-10 3-4h2v-6l5-6-12 2-10 4-8 9-2 5-2 23-3 6-8 7-16 7-15 4h-8l-14-3-12-6-10-9-5-9v-9l4-4 11-4 10-6 5-6v-6l-4-5-3-2h-12l4-3 9-3z" fill="#FEFEFE"/>
<path transform="translate(572,1276)" d="m0 0h21l14 2 16 5 12 6 12 11 6 8 4 10v17l-3 10-5 9-8 8-14 9-15 6-4 1h-7v-2l9-4 8-6 6-8 2-5v-17l-3-10-5-10-7-9-9-9-17-9-12-4-15-2-19-1 2-2 19-3z" fill="#D8EDD6"/>
<path transform="translate(548,1015)" d="m0 0 48 1 5 5 13 18 10 13 14 19 16 21 9 13 14 19 16 21 10 14 4 5v6l-2 1-7-10-8-11v-2l-3-1v-3l-3-1-2-4-9-9-6-9-8-11-6-8-9-11-3-2v-3l-3-1-4-6v-2h-2l-4-7-5-8-9-13-10-13-8-10-2-4-7-1-6-1-10 1-3 2 1 5 12 16 8 11 2 4h2l6 9 10 13 7 10 9 12 4 6v2h2l2 3v4l4 2 5 5 3 4v2h2l20 28 12 16 4 7-1 3v-2l-4 1-10-14-16-21-12-16-10-13-14-19-10-13-13-18-10-13-14-19-8-10-9-9-4-2z" fill="#D1E7CF"/>
<path transform="translate(812,1477)" d="m0 0h21l6 3 4 5 2 4 1 48 1 5 10-1-2 4-3 2h-14l-3-3-1-6-10 8-3 1h-16l-5-3-4-8v-7l4-7 8-6 16-8 8-3v-18l-2-4-5-2h-13v5l2 3v7l-5 3h-6l-3-3v-9l8-8z" fill="#FAFBFA"/>
<path transform="translate(1113,1546)" d="m0 0h6v2l4 2-9 7-21 13-1 4 2 2h7l15-11 6-3h5l5 4 1 2v8l-9 10-8 5-23 1-15 3-5 2v3l-9-3-7-2v-1h6l-3-3-10-7-12-10-8-7-6-8-6-10v-2l6 2 14 9 14 8 4 5 3 7 2 8 3 5v2l9 1 11-5v-3l-10-4-2-2-2-7 9-8 13-8 10-6 6-3h5z" fill="#8D0BE6"/>
<path transform="translate(713,1452)" d="m0 0 65 1v24l-4-1-4-15-5-3h-28l-1 2-1 38h7l9-3 3-7 2-7h3v37h-3l-3-12-3-3-15-2 1 32 1 9 3 1h17l9-2 6-4 3-9 2-8h3l1 27h-69v-3l8-2 1-1v-82l-9-4z" fill="#F5F8F4"/>
<path transform="translate(1354,1477)" d="m0 0h1l1 11 4-5 9-6h15l6 3 4 5 2 5 1 37 1 14 9 4v2h-32l1-3 6-3 2-12v-25l-1-15-3-5-5-2-8 1-8 7-3 8v41l1 3 8 3-1 2h-30l-1-3 8-3 1-4v-49l-1-3-8-4v-3z" fill="#F5F7F5"/>
<path transform="translate(1268,1477)" d="m0 0h4l1 61 5 5h7l8-5 4-6 2-10v-33l-3-5-7-4 1-2h22l1 60 2 4 8 2v3h-23l-1-3 2-9h-2l-2 4-7 7-7 3h-8l-10-4-4-6-1-4-1-46-2-6-7-1 1-4z" fill="#F7F9F7"/>
<path transform="translate(1147,1540)" d="m0 0v3l-1 4 5 6 2 1 15 1 1-3h2l-2 4-6 10-8 7-7 7-13 8-13 6-9 3-10 2-11 1h-19v-4l8-3 12-2 23-1 9-6 7-8v-8l-5-5-7 1-11 7-8 6h-7l-3-3 1-4 14-9 15-10v-2l-3-3 4-1 6 1 10-5z" fill="#FCFEFC"/>
<path transform="translate(1840,1016)" d="m0 0 12 1 14 3 16 8 7 7 4 8 1 3v7l-4 9-6 7-6 3h-12l-6-3-5-4-5-9v-12l1-11-4-10-4-4z" fill="#5FC138"/>
<path transform="translate(1103,1415)" d="m0 0h10l4 2 5 1 14 7 6 4 5 3 5 6 5 3 8 9 1 3 3 3 8 16 3 10 1 11 2 8v12l-2-3-3-12-5-12-6-9-6-7-11-9-11-7-16-9-12-9-7-6-4-7 3-3 7 3 20 10-5-4-14-9-8-4z" fill="#28D5EA"/>
<path transform="translate(924,1478)" d="m0 0h30l-2 4-6 2 1 6 6 17 5 12 3 8v3l2-1 10-27 5-12-1-5-8-4v-3h21l-2 4-4 4-10 26-8 20-9 25-6 10-6 5h-9l-5-4-1-7 5-5 6 1 3 3-1 10 5-5 5-10 2-5v-7l-8-20-6-13-6-15-5-10-5-3z" fill="#F4F5F6"/>
<path transform="translate(884,1476)" d="m0 0 13 1 9 4 3-4h3v22l-5-1-4-11-5-5-4-1h-8l-5 3-1 2 1 9 7 6 14 9 8 7 4 7v12l-6 8-10 5h-13l-9-4-3-2-2 5-3-1 1-26 4 2 4 15 5 5 5 2 9-1 3-1 2-4v-9l-2-6-4-2-11-8-8-5v-2h-2l-5-9v-9l5-8 6-4z" fill="#F7F7F8"/>
<path transform="translate(1040,1465)" d="m0 0 10 1 6 4 4 5 2 4v10l-7 9-10 7-15 10-3 6 2 4 12 6 5 1 1 2h13l7 1 12 1v2l-15 4h-8l-14-3-12-6-10-9-5-9v-9l4-4 11-4 10-6 5-6v-6l-4-5-3-2h-12l4-3 9-3z" fill="#FDFEFC"/>
<path transform="translate(1226,1476)" d="m0 0 9 1 6 5 1 2v6l-6 6-6-1-2-2v-9l1-3-6 1-5 5-5 8-1 2v41l1 2 12 5v2h-37v-3l7-1v-2l2-1 1-3v-47l-2-5-8-5 1-2h22v9l-1 2 5-5 7-6z" fill="#F4F7F5"/>
<path transform="translate(1142,1497)" d="m0 0h14l5 6v7l-8 8h-2v5h-2v16l-2 2-9 1-10 5-10-1-6-1 1-5 7-7 9-15 2-5 2-8 3-5z" fill="#2AD7E8"/>
<path transform="translate(1424,1016)" d="m0 0 20 4 17 8 9 7 9 9 8 14 5 11 4 14 3 22v33l-3 19-4 15-8 16-6 9-4 5h-2l2-4 7-11 1-5 7-13 2-9h2v-67l-1-6 1-5-4-13-3-6-4-7v-2l-4-2-1-4-8-10v-2l-4-2-7-4-1-2h-7l-5-2-1-4-9 1 2 5 6 4 4 8v6l2 6 5 24 2 4-1 10 1 11v39l-1 16-2 16-2 7-2 9h-1v-8l4-27 1-17v-30l-2-27-3-19-5-17-6-12-9-10-4-3z" fill="#85D166"/>
<path transform="translate(1314,1015)" d="m0 0 61 1v208l-4 1h-50l-6-1 2-2 8-4 5-6 4-9h1l-1 7-1 5v6l1 1 38 1-1-3 1-5v-73l-1-19v-85l1-6-2-10-3-3h-20l-4 2h-7l-6 1 1 4 4 8 1 3v70h-1l-1-68-4-10-8-9-8-4z" fill="#80CF60"/>
<path transform="translate(1354,1477)" d="m0 0h1l1 13 1 4-1 4v41l1 3 8 3-1 2h-30l-1-3 8-3 1-4v-49l-1-3-8-4v-3z" fill="#F7F7F9"/>
<path transform="translate(1268,1477)" d="m0 0h4l1 61 5 5h7l4-2h5l-4 5-7 3h-8l-10-4-4-6-1-4-1-46-2-6-7-1 1-4z" fill="#FAFAFB"/>
<path transform="translate(438,1305)" d="m0 0 3 1-21 7-26 8-20 7-11 2-26 8h-2v-6l-8-3v-3l41-7 47-9z" fill="#F1F0F3"/>
<path transform="translate(1108,1546)" d="m0 0h5v2l-7 2-19 11-12 8-4 5 3 7 10 4 1 4-12 6-7-1-3-3-4-7-2-8-2-5 1-3 5 2 1-3 5-1v-2h3v-2l9-3 19-9 9-3z" fill="#D5F0CE"/>
<path transform="translate(1647,1016)" d="m0 0h43v41l-2 2-3-9-5-10-9-10-11-8-13-5z" fill="#5FC138"/>
<path transform="translate(1018,1547)" d="m0 0 6 2 14 9 14 8 4 5 3 7 2 8 3 5v2l9 2v5l-9-3-7-2v-1h6l-3-3-10-7-12-10-8-7-6-8-6-10z" fill="#8C07E6"/>
<path transform="translate(832,1508)" d="m0 0h1v26l-9 7-8 1-5-2-3-6v-8l6-8 10-6z" fill="#181619"/>
<path transform="translate(1745,1175)" d="m0 0 4 4 9 21 6 9 9 9 9 6 4 3-13-2-12-3-14-1-1-34z" fill="#5FC138"/>
<path transform="translate(1698,1184)" d="m0 0h1v41h-40v-2l14-6 9-7 8-9 7-14z" fill="#60C13A"/>
<path transform="translate(1103,1415)" d="m0 0h10l4 2 5 1 14 7 6 4 5 3 5 6 5 3 8 9 1 3 3 3 6 11v5l-4-5-6-8-7-7-14-10-10-7-18-12-13-7z" fill="#FBFCFB"/>
<path transform="translate(490,1339)" d="m0 0 6 3 6 7 6 2 9 5h6l1-4 4 2 3 3 7 4 9 7 13 6 7 2v2h-10l-26-8-23-11-10-8-7-6-2-5z" fill="#F1F2F3"/>
<path transform="translate(829,1506)" d="m0 0 3 1v2l-14 7-6 5-3 5v8l2 6 9 1 7-3 5-4-2 6-5 5-4 2h-16l-5-3-4-8v-7l4-7 8-6 16-8z" fill="#F3F5F4"/>
<path transform="translate(1662,1092)" d="m0 0h2l-1 44-4-4-4-5v-2l-16-8-6-1h-10v-2l17-2 11-6 5-5z" fill="#62C13C"/>
<path transform="translate(1144,1489)" d="m0 0h7l6 3 6 5 4 7v13l-4 5-10 2-3 7h-1v-8h2v-5l8-7 1-1v-7l-4-5h-14l-6 2-4 10h-3l1-9 4-6 5-4z" fill="#DCF2D7"/>
<path transform="translate(1494,1082)" d="m0 0 2 1 3 22v33l-3 19-4 15-8 16-6 9-4 5h-2l2-4 7-11 1-5 7-13 2-9h2v-67l-1-6z" fill="#8CD171"/>
<path transform="translate(1016,1509)" d="m0 0h2l1 6h8v-2h2l-1 5-1 3 2 4 12 6 5 1 1 2h13l7 1 12 1v2l-15 4h-8l-14-3-12-6-10-9-5-9z" fill="#D7F1D1"/>
<path transform="translate(560,1277)" d="m0 0h27l5 1 1 7 13 10 1 4-9-3-16-8-9-3-15-2-19-1 2-2z" fill="#EEEEF1"/>
<path transform="translate(569,1199)" d="m0 0 3 1 4 11 6 8 9 4v2h-41v-2l10-5 6-7z" fill="#D0E7CC"/>
<path transform="translate(889,1199)" d="m0 0h2l4 11 6 8 6 4 4 2-2 1h-38l-2-2 9-4 5-4 4-8z" fill="#A7D798"/>
<path transform="translate(689,1015)" d="m0 0h44l-4 3-9 6-6 9-3 9h-2l-3-11-4-6-4-4-9-5z" fill="#A6D796"/>
<path transform="translate(1040,1015)" d="m0 0 6 1 1-1h5l-4 3-8 5-2 3h-2l-2 6-3 10h-2l-4-13-7-8-5-3v-2z" fill="#9FD48D"/>
<path transform="translate(628,1349)" d="m0 0 4 5 1 4h6 3l-1 4-14 9-15 6-4 1h-7v-2l9-4 8-6 6-8 2-5h2z" fill="#ECEAF0"/>
<path transform="translate(377,1015)" d="m0 0h44v2l-12 5-10 9-4 7-2-2-3-11-5-5-8-4z" fill="#F5F8F5"/>
<path transform="translate(1226,1476)" d="m0 0 9 1 6 5 1 2v6l-6 6-6-1-2-2v-9l1-3-6 1-5 5-5 8-1-4h-3l6-7 7-6z" fill="#F3F5F4"/>
<path transform="translate(706,1182)" d="m0 0h1l1 7 1 25-1 6-5-3-12-16-1-6 5 1 4 3h2l4-14z" fill="#D7EED4"/>
<path transform="translate(1314,1015)" d="m0 0 60 1v1l-27 1-1 2-6 1-10 1 1 4 4 8 1 3v70h-1l-1-68-4-10-8-9-8-4z" fill="#83CF65"/>
<path transform="translate(969,1478)" d="m0 0h21l-2 4-4 4-15 39-4 1 1-6 12-30-1-5-8-4z" fill="#ECF0ED"/>
<path transform="translate(956,1546)" d="m0 0 3 3-1 6-7 12-6 5h-9l-5-4-1-7 5-5 6 1 3 3-1 10 5-5 5-10z" fill="#F3F2F6"/>
<path transform="translate(777,1520)" d="m0 0h3l1 27h-28l4-4 9-2 6-4 3-9z" fill="#EDF0EE"/>
<path transform="translate(757,1480)" d="m0 0 2 1v37h-3l-3-12-3-3-10-2 2-3 9-3 3-7 2-7z" fill="#F0F1F2"/>
<path transform="translate(1068,1574)" d="m0 0v3l4 2 6 4 7 3-1 4-11 5-7-1-3-3v-2h2v-13z" fill="#2CD0E8"/>
<path transform="translate(173,1286)" d="m0 0h1l3 12 6 8 7 9-1 2-6-1-1 5-2 4-5-10-3-13v-13z" fill="#ECEDEE"/>
<path transform="translate(1142,1436)" d="m0 0 8 2 6 2 9 10 1 3 3 3 6 11v5l-4-5-6-8-7-7-14-10-3-2z" fill="#D9D9E1"/>
<path transform="translate(812,1477)" d="m0 0h7l1 3-8 1v5l2 3v7l-5 3h-6l-3-3v-9l8-8z" fill="#F8F9F9"/>
<path transform="translate(1137,1474)" d="m0 0 3 1-2 4-2 2-1 6h-2l-7 14-1 5h-1l-2-12 1-9 6-5-5-2 4-2z" fill="#A7DF93"/>
<path transform="translate(1439,1020)" d="m0 0 7 1 16 8 8 6 9 9 8 14 5 11 3 10v3h-2l-4-13-3-6-4-7v-2l-4-2-1-4-8-10v-2l-4-2-7-4-1-2h-7l-5-2-1-4-5-1z" fill="#87D269"/>
<path transform="translate(1453,1090)" d="m0 0h2l1 11v39l-1 16-2 16-2 7-2 9h-1v-8l4-27 1-17z" fill="#88D26B"/>
<path transform="translate(884,1476)" d="m0 0 13 1 9 4 3-4h3v22l-5-1-4-11-5-5-6-2v-2h-8z" fill="#E7E0EF"/>
<path transform="translate(869,1521)" d="m0 0 4 2 4 15 5 5 5 2 6 1-4 1v2l-7-1-9-5-2 5-3-1z" fill="#F0F1F2"/>
<path transform="translate(1144,1489)" d="m0 0h7l6 3 1 2h-5l1 2-12 2-6 2-4 10h-3l1-9 4-6 5-4z" fill="#FEFEFE"/>
<path transform="translate(1334,1203)" d="m0 0h1l-1 7-1 5v6l1 1 36 1v1l-14 1h-35l-6-1 2-2 8-4 5-6z" fill="#8EAB89"/>
<path transform="translate(1108,1546)" d="m0 0h5v2l-7 2-19 11-11 7-9-2v-2h3v-2l9-3 19-9 9-3z" fill="#E9F7E7"/>
<path transform="translate(1169,1552)" d="m0 0h2l-2 4-6 10-5-3-10-1-1-4 4-4 17 1z" fill="#50DAD9"/>
<path transform="translate(1439,1209)" d="m0 0h3l1 5 2 1v2l3 1-10 4-14 3-2-2 6-3 7-7z" fill="#87D269"/>
<path transform="translate(1112,1535)" d="m0 0 1 2 3 1-3 3v3l4 1-9 2-7 3-12 5-10 5-3-1 16-8 14-9z" fill="#A7DF93"/>
<path transform="translate(978,1494)" d="m0 0h2l-1 5-10 26-4 1 1-6 10-25z" fill="#DBDDE0"/>
<path transform="translate(1445,1045)" d="m0 0 3 2 6 29 2 4-1 9h-3l-3-24-4-16z" fill="#86D167"/>
<path transform="translate(1213,1216)" d="m0 0 2 1 2 2 9-1-1 3-27 7-2-1 13-8z" fill="#9FCF90"/>
<path transform="translate(721,1019)" d="m0 0h2l-2 4-6 8-4 11h-2l-2-9v-2h2v-3l6-2 2-6z" fill="#CBDECA"/>
<path transform="translate(442,1017)" d="m0 0h12l-1 10 1 5-3-1-6-8-5-5z" fill="#F7F7F7"/>
<path transform="translate(956,1546)" d="m0 0 3 3-1 6-7 12-6 5-4-1 2-3v2l5-5 5-10z" fill="#DACEE6"/>
<path transform="translate(1373,1168)" d="m0 0h1l1 56-4 1h-11v-1l12-1-1-3 1-5v-46z" fill="#8ED571"/>
<path transform="translate(1147,1443)" d="m0 0 5 2 9 7 6 4 1-2 7 13v5l-4-5-6-8-7-7-11-8z" fill="#A0C1A0"/>
<path transform="translate(1241,1029)" d="m0 0 5 2 10 8 10 12 7 12 2 6-3-1-7-14-6-8-12-12-6-4z" fill="#9BD287"/>
<path transform="translate(1454,1145)" d="m0 0h1v11l-2 16-2 7-2 9h-1v-8l4-27 1-7z" fill="#84D065"/>
<path transform="translate(607,1088)" d="m0 0 4 2 10 13 4 5 6 8v2l-4-2-14-19z" fill="#B2D3AB"/>
<path transform="translate(1103,1420)" d="m0 0 7 3 15 8-3 1-9-3-7-5-3-1-1 4-2-4z" fill="#ACE2A1"/>
<path transform="translate(1053,1506)" d="m0 0 2 1-7 7-3 6 5 5 7 3v1l-8-1-6-4v-8l7-8z" fill="#F5FBF4"/>
<path transform="translate(1074,1560)" d="m0 0h8v3l-4 4-3 1-6-2h-2v-2h3v-2z" fill="#F2FAF0"/>
<path transform="translate(1437,1029)" d="m0 0 4 2 4 4 2 5v5l-3 1-4-10-3-5z" fill="#88D269"/>
<path transform="translate(366,1328)" d="m0 0h5l-3 2-29 10h-2v-3z" fill="#C0CAC5"/>
<path transform="translate(1216,1542)" d="m0 0 9 3v2h-31v-1l19-1z" fill="#C5E0BF"/>
<path transform="translate(1117,1215)" d="m0 0 6 1 11 4 14 3v3l-16-4-15-6z" fill="#A3C29D"/>
<path transform="translate(1132,1489)" d="m0 0 3 1-2 1-2 4-3 7-1 10 2 1-4-1v-11l5-10z" fill="#EDF9EB"/>
<path transform="translate(1176,1490)" d="m0 0 2 1v2h3l2 8v12l-2-3-3-12z" fill="#97CEA2"/>
<path transform="translate(438,1305)" d="m0 0 3 1-21 7h-3v-2l-2-1z" fill="#B8A6CC"/>
<path transform="translate(499,1017)" d="m0 0h15l-3 3-5 3-4 2z" fill="#F6FCF5"/>
<path transform="translate(1446,1189)" d="m0 0h2l1 8-2 3h-3l-2 6-2 2 1-6z" fill="#86D168"/>
<path transform="translate(1094,1043)" d="m0 0 2 1-8 11-7 12-2-1 7-13 7-9z" fill="#A0DC8A"/>
<path transform="translate(1016,1509)" d="m0 0h2l1 6h8v-2h2v3l-9 1-2 4-3-6z" fill="#D6F0D0"/>
<path transform="translate(1445,1045)" d="m0 0 3 2 4 19v4h-2l-4-18z" fill="#81CF61"/>
<path transform="translate(694,1017)" d="m0 0 13 1-1 4-3 1-1 2-4-4-4-2z" fill="#D1E1D1"/>
<path transform="translate(1057,1537)" d="m0 0 10 1-1 3-2 1h-8l-3-2 4-1z" fill="#E9F7E5"/>
<path transform="translate(1090,1503)" d="m0 0 1 2-6 10-7 6-2-1 3-3h2l2-4z" fill="#F3FAF1"/>
<path transform="translate(554,1372)" d="m0 0 13 4v2h-10l-4-2z" fill="#CBD5CF"/>
<path transform="translate(1090,1555)" d="m0 0m-2 0 2 1v3l-6 4-4-1 1-1-2-2z" fill="#E0F4DD"/>
<path transform="translate(978,1494)" d="m0 0h2l-1 5-3 8h-3l-1-2 4-10z" fill="#DBD9E2"/>
<path transform="translate(709,1196)" d="m0 0h1v28l-5-5h2l1-5z" fill="#9A6EC0"/>
<path transform="translate(1166,1513)" d="m0 0 1 4-4 5-2-1-3-4 4-3z" fill="#fff"/>
<path transform="translate(1153,1493)" d="m0 0 5 1v3l3 1v5l-5-5-9-1v-1l5-1z" fill="#CFEEC7"/>
<path transform="translate(430,1015)" d="m0 0h12l8 1v1l-12 2-8-3z" fill="#AEAFB9"/>
<path transform="translate(1063,1578)" d="m0 0h1v10l-4-2-1-5z" fill="#EDF8EA"/>
<path transform="translate(1031,1497)" d="m0 0h5l-1 6h-7l2-5z" fill="#DBF2D7"/>
<path transform="translate(1158,1494)" d="m0 0 4 2 5 8-1 4-4-6-2-4-2-1z" fill="#FAFDF9"/>
<path transform="translate(812,1477)" d="m0 0h7l1 3-8 1-2 3-2-5z" fill="#E0DCE8"/>
<path transform="translate(569,1199)" d="m0 0 3 1 2 8h-4l-1 2-2-1z" fill="#A6CD9C"/>
<path transform="translate(1044,1520)" d="m0 0 6 5 7 3v1l-8-1-6-4z" fill="#F6FCF5"/>
<path transform="translate(1020,1516)" d="m0 0h9l-3 5h-7z" fill="#FCFEFC"/>
<path transform="translate(956,1546)" d="m0 0 3 3-1 6-2 2-3 1 1-6z" fill="#D4CFDE"/>
<path transform="translate(974,1504)" d="m0 0h1v6l-3 6h-2v-6z" fill="#EBEBEE"/>
<path transform="translate(1215,1484)" d="m0 0 1 2 2 1-5 8-1-4h-3z" fill="#D0CEDA"/>
<path transform="translate(1134,1495)" d="m0 0 3 1-4 6-1 3h-2v5h-1l1-9z" fill="#EBF8E9"/>
<path transform="translate(247,1354)" d="m0 0h9l2 3h-12l-2-2z" fill="#fff"/>
<path transform="translate(829,1506)" d="m0 0 3 1v2l-6 3h-2v-2l-2-1z" fill="#DCD6E5"/>
<path transform="translate(713,1452)" d="m0 0h6v3 2l-6-1z" fill="#D1B5E8"/>
<path transform="translate(1373,1217)" d="m0 0h1l1 7-4 1h-11v-1l12-1-1-3z" fill="#7CCD5B"/>
<path transform="translate(1481,1189)" d="m0 0 1 3-8 10h-2l2-4z" fill="#82D063"/>
<path transform="translate(721,1019)" d="m0 0h2l-2 4-4 4-2-1 2-6z" fill="#D8F1D3"/>
<path transform="translate(347,1334)" d="m0 0h3v2l-11 4h-2v-3z" fill="#B9BAC4"/>
<path transform="translate(1164,1560)" d="m0 0h2l-2 4-2 2-1-2-8-2v-1z" fill="#B5C5B6"/>
<path transform="translate(1029,1526)" d="m0 0 15 6-4 1-7-2-4-4z" fill="#FCFEFC"/>
<path transform="translate(624,1108)" d="m0 0 5 5 2 5-4-2-4-5z" fill="#AAC1A9"/>
<path transform="translate(1318,1544)" d="m0 0h5v3h-15v-1l9-1z" fill="#D3EFCA"/>
<path transform="translate(1251,1478)" d="m0 0h6l-1 5-6-1z" fill="#D7D9DC"/>
</svg>
